:version 1.10
:name ASF
:units
  mass 1
  length 1
  angle deg
:documentation
  ASF file generated by Kaydara
:root
  axis xyz
  order  tx ty tz rx ry rz
  position 0 0 0
  orientation 0 0 0
:bonedata
  begin
    id 1
    name SpineDummy
    direction 0.999998 -0.00179978 1.38929e-006
    length 3.60008
    axis 0 0 0 xyz
  end
  begin
    id 2
    name Spine
    direction 0.964365 0.262802 0.0305839
    length 8.13928
    axis 1.33928 -1.75354 15.2838 xyz
    dof rx ry rz
  end
  begin
    id 3
    name Spine1
    direction 0.811168 0.572065 0.12144
    length 7.14954
    axis 2.2224 -6.9761 35.2157 xyz
    dof rx ry rz
  end
  begin
    id 4
    name Neck
    direction 0 0 0
    length 0
    axis 2.2224 -6.9761 35.2157 xyz
    dof rx ry rz
  end
  begin
    id 5
    name HeadDummy
    direction 0.810939 0.572387 0.121455
    length 3.55534
    axis 2.2224 -6.9761 35.2157 xyz
  end
  begin
    id 6
    name Head
    direction 0.998226 -0.000232542 0.0595419
    length 7.35666
    axis -3.03688 -3.41352 -0.0133467 xyz
    dof rx ry rz
  end
  begin
    id 7
    name R_ClavicleDummy
    direction 0.531669 -0.194489 -0.824319
    length 2.49392
    axis 2.2224 -6.9761 35.2157 xyz
  end
  begin
    id 8
    name R_Clavicle
    direction -0.155119 0.0480802 -0.986725
    length 4.485
    axis -54.2764 80.6538 162.779 xyz
    dof rx ry rz
  end
  begin
    id 9
    name R_UpperArm
    direction -0.955567 0.200068 -0.216484
    length 10.1122
    axis -72.9943 12.5026 168.175 xyz
    dof rx ry rz
  end
  begin
    id 10
    name R_Forearm
    direction -0.61433 0.385743 0.688332
    length 9.39148
    axis -117.015 -43.4982 147.875 xyz
    dof rx ry rz
  end
  begin
    id 11
    name R_Hand
    direction -0.699429 0.0170333 0.714499
    length 3.66324
    axis -45.0303 -36.7097 175.478 xyz
    dof rx ry rz
  end
  begin
    id 12
    name L_ClavicleDummy
    direction 0.40287 -0.36502 0.839319
    length 2.49392
    axis 2.2224 -6.9761 35.2157 xyz
  end
  begin
    id 13
    name L_Clavicle
    direction -0.231271 -0.0726419 0.970174
    length 4.485
    axis 18.4357 -75.9711 -162.563 xyz
    dof rx ry rz
  end
  begin
    id 14
    name L_UpperArm
    direction -0.917494 0.144359 0.370629
    length 10.1122
    axis 56.0417 -21.7544 171.058 xyz
    dof rx ry rz
  end
  begin
    id 15
    name L_Forearm
    direction -0.496786 0.615074 -0.612281
    length 9.39148
    axis 89.8094 37.7546 128.927 xyz
    dof rx ry rz
  end
  begin
    id 16
    name L_Hand
    direction -0.409932 0.64962 -0.640274
    length 3.66324
    axis -0.424369 32.133 128.52 xyz
    dof rx ry rz
  end
  begin
    id 17
    name L_ThighDummy
    direction -1.84081e-006 1.87549e-006 1
    length 3.13049
    axis 0 0 0 xyz
  end
  begin
    id 18
    name L_Thigh
    direction -0.947739 0.307978 0.083308
    length 17.9961
    axis 173.219 -4.77873 161.998 xyz
    dof rx ry rz
  end
  begin
    id 19
    name L_Calf
    direction -0.728814 -0.684427 0.0197583
    length 13.3367
    axis 167.331 -1.13214 -136.799 xyz
    dof rx ry rz
  end
  begin
    id 20
    name L_Foot
    direction -0.9028 0.418719 0.0981191
    length 5.8674
    axis 163.436 11.5135 -155.37 xyz
    dof rx ry rz
  end
  begin
    id 21
    name L_Toe0
    direction -0.35341 0.886259 0.299411
    length 4.75286
    axis 169.316 -17.4222 111.74 xyz
    dof rx ry rz
  end
  begin
    id 22
    name R_ThighDummy
    direction 9.32778e-007 -8.82053e-007 -1
    length 3.13049
    axis 0 0 0 xyz
  end
  begin
    id 23
    name R_Thigh
    direction -0.925064 0.37528 -0.0585023
    length 17.9961
    axis -178.698 3.35385 157.919 xyz
    dof rx ry rz
  end
  begin
    id 24
    name R_Calf
    direction -0.68969 -0.718776 -0.0876886
    length 13.3367
    axis -160.504 5.03065 -133.817 xyz
    dof rx ry rz
  end
  begin
    id 25
    name R_Foot
    direction -0.857405 0.418858 -0.299022
    length 5.8674
    axis -161.328 4.38911 -154.413 xyz
    dof rx ry rz
  end
  begin
    id 26
    name R_Toe0
    direction -0.100745 0.952789 -0.286433
    length 4.75286
    axis 171.683 16.6445 96.0359 xyz
    dof rx ry rz
  end
:hierarchy
  begin
    root SpineDummy L_ThighDummy R_ThighDummy
    SpineDummy Spine
    Spine Spine1
    Spine1 Neck
    Neck HeadDummy R_ClavicleDummy L_ClavicleDummy
    HeadDummy Head
    R_ClavicleDummy R_Clavicle
    R_Clavicle R_UpperArm
    R_UpperArm R_Forearm
    R_Forearm R_Hand
    L_ClavicleDummy L_Clavicle
    L_Clavicle L_UpperArm
    L_UpperArm L_Forearm
    L_Forearm L_Hand
    L_ThighDummy L_Thigh
    L_Thigh L_Calf
    L_Calf L_Foot
    L_Foot L_Toe0
    R_ThighDummy R_Thigh
    R_Thigh R_Calf
    R_Calf R_Foot
    R_Foot R_Toe0
  end

:SAMPLES-PER-SECOND 30
:FULLY-SPECIFIED
:DEGREES
170
root  -6.54474 30.9553 49.6326 136.154 -1.58401 91.1379
Spine  -12.7066 -14.9989 -1.86896
Spine1  -9.86789 38.8371 2.0572
Neck  3.97569e-016 0 -2.38542e-015
Head  12.5236 -4.12221 4.33238
R_Clavicle  0.493594 -15.5596 3.31071
R_UpperArm  29.906 6.47847 52.698
R_Forearm  23.2517 -6.44351 5.35584
R_Hand  0.243002 7.46412 -8.89965
L_Clavicle  -0.432861 15.422 -0.492338
L_UpperArm  -22.2969 1.38466 14.8488
L_Forearm  -6.25177 1.92686 2.21228
L_Hand  -0.528936 0.993943 -9.07771
L_Thigh  -17.5908 21.4601 -14.4194
L_Calf  -5.43051 -3.35628 25.2432
L_Foot  -0.37751 1.08633 -3.03691
L_Toe0  -4.77216 0.304103 -3.11594
R_Thigh  24.6503 -12.2956 4.1195
R_Calf  5.78237 3.43007 10.7308
R_Foot  -0.408317 0.125527 3.88523
R_Toe0  -0.0409155 -0.280571 -16.5298
171
root  -6.66198 31.2189 48.9347 143.159 -2.27507 92.8649
Spine  -12.1913 -13.8997 -2.97362
Spine1  -8.07893 35.399 6.86141
Neck  3.97569e-016 0 -2.38542e-015
Head  14.6111 -4.89567 7.25495
R_Clavicle  0.469216 -16.6306 3.05633
R_UpperArm  28.3085 2.59376 48.8681
R_Forearm  21.9177 -2.92063 2.40164
R_Hand  0.1604 6.70931 -8.91689
L_Clavicle  -0.47074 16.4796 -0.888437
L_UpperArm  -22.057 3.75918 8.94796
L_Forearm  -10.6342 6.97976 8.11602
L_Hand  -0.53862 0.791357 -9.57046
L_Thigh  -11.7768 17.776 -10.1937
L_Calf  -7.71914 -3.14259 23.547
L_Foot  -0.149223 2.99277 -3.90176
L_Toe0  -4.32371 0.256496 -3.37055
R_Thigh  16.6367 -11.8506 3.08189
R_Calf  15.2615 4.00099 12.5296
R_Foot  -0.418512 -0.498891 2.29933
R_Toe0  -1.5804 -0.267568 -17.2051
172
root  -6.79939 31.6452 48.412 149.393 -3.63962 93.6689
Spine  -11.1096 -12.1909 -5.37833
Spine1  -6.69278 30.5641 10.5231
Neck  3.97569e-016 0 -2.38542e-015
Head  21.0046 -7.87067 11.8333
R_Clavicle  0.446201 -17.9341 2.74143
R_UpperArm  24.2413 0.102369 42.5203
R_Forearm  20.9128 -1.09529 0.883307
R_Hand  -0.0321871 6.44728 -10.3397
L_Clavicle  -0.539501 18.3399 -0.841188
L_UpperArm  -19.7954 6.22172 6.74246
L_Forearm  -13.5638 12.8216 15.2301
L_Hand  -0.414954 -0.475606 -9.23467
L_Thigh  -6.75729 13.554 -6.49853
L_Calf  -10.4852 -3.06842 22.9354
L_Foot  0.20439 7.95981 -6.47217
L_Toe0  -5.09673 0.344972 -2.9101
R_Thigh  3.3966 -7.40224 1.30348
R_Calf  15.2485 4.72861 14.8481
R_Foot  -0.861585 -1.33146 3.5796
R_Toe0  -1.80375 -0.272943 -17.3322
173
root  -7.0132 31.9528 48.0214 155.573 -5.01015 94.0089
Spine  -9.95439 -9.69848 -6.58158
Spine1  -6.05154 25.2846 11.9517
Neck  3.97569e-016 0 -2.38542e-015
Head  29.4952 -10.4682 14.0224
R_Clavicle  0.444011 -18.4728 2.76821
R_UpperArm  19.4473 -1.33387 34.9375
R_Forearm  19.4585 0.459471 -0.407863
R_Hand  -0.200837 6.73797 -11.9764
L_Clavicle  -0.557905 19.1735 -0.420429
L_UpperArm  -16.2986 8.42704 7.76759
L_Forearm  -14.0763 18.5029 22.7326
L_Hand  -0.328734 -1.82314 -10.0265
L_Thigh  -2.95488 10.2076 -2.33223
L_Calf  -11.1732 -2.93618 21.8318
L_Foot  -0.622604 11.572 -11.6457
L_Toe0  -7.5537 0.710317 -1.50082
R_Thigh  -14.3373 -0.583725 -1.77007
R_Calf  7.47463 5.1195 16.1134
R_Foot  -1.91101 -2.45331 8.58148
R_Toe0  -1.81986 -0.272934 -17.3414
174
root  -7.17522 31.861 47.7446 163.711 -6.18421 95.0323
Spine  -9.41785 -6.05985 -5.42416
Spine1  -6.65775 19.645 11.2244
Neck  3.97569e-016 0 -2.38542e-015
Head  37.4279 -11.1559 13.9083
R_Clavicle  0.451078 -17.4453 2.79143
R_UpperArm  16.4199 -2.88265 27.9627
R_Forearm  17.5852 3.22967 -2.7133
R_Hand  -0.216141 7.23113 -12.4098
L_Clavicle  -0.543354 18.578 -0.621879
L_UpperArm  -11.7273 8.99308 11.244
L_Forearm  -15.5998 23.3562 30.0027
L_Hand  -0.23356 -3.23841 -11.598
L_Thigh  -1.44318 7.26252 2.56064
L_Calf  -7.78887 -2.37328 17.396
L_Foot  -1.81883 12.5706 -16.1333
L_Toe0  -10.1532 1.16939 -0.0764287
R_Thigh  -28.8437 3.54454 -5.73979
R_Calf  1.47147 4.7463 14.9142
R_Foot  -1.4173 -0.786402 9.51244
R_Toe0  -1.52474 -0.271691 -17.1733
175
root  -7.16519 31.505 47.4999 174.213 -6.8735 96.4774
Spine  -9.11882 -0.650929 -4.02612
Spine1  -7.75048 14.039 10.5483
Neck  3.97569e-016 0 -2.38542e-015
Head  42.9489 -11.3142 13.0948
R_Clavicle  0.437306 -15.5639 2.38785
R_UpperArm  15.9864 -3.23509 23.9518
R_Forearm  16.2318 8.01897 -6.74891
R_Hand  -0.115045 7.66579 -11.8714
L_Clavicle  -0.549363 18.0178 -2.04336
L_UpperArm  -7.95119 6.60377 16.1864
L_Forearm  -17.9608 27.4853 35.4541
L_Hand  -0.044173 -5.07749 -12.8209
L_Thigh  -2.45311 4.521 7.61397
L_Calf  -2.56248 -1.36837 9.78266
L_Foot  -1.95539 11.9851 -16.354
L_Toe0  -6.90332 0.724529 -1.95202
R_Thigh  -28.5424 3.06946 -9.4949
R_Calf  2.04564 3.99254 12.5366
R_Foot  -0.955776 1.13192 11.8878
R_Toe0  -0.42549 -0.266717 -16.5472
176
root  -6.97522 31.2512 47.2241 -175.198 -6.67975 97.4297
Spine  -8.11779 5.66133 -4.89551
Spine1  -7.77497 9.419 11.6229
Neck  3.97569e-016 0 -2.38542e-015
Head  45.9668 -12.0095 12.3825
R_Clavicle  0.392632 -13.6463 1.76872
R_UpperArm  17.274 -1.1635 23.8667
R_Forearm  15.9391 13.9281 -11.919
R_Hand  -0.00660025 7.78427 -11.1009
L_Clavicle  -0.568965 17.7727 -3.94058
L_UpperArm  -11.4053 2.47584 20.4809
L_Forearm  -13.5701 32.4371 37.731
L_Hand  0.122135 -6.5066 -12.7638
L_Thigh  -5.40037 2.98969 11.9107
L_Calf  0.722161 -0.257489 1.56874
L_Foot  -0.958972 10.8037 -12.4151
L_Toe0  1.16515 -0.0278995 -6.50921
R_Thigh  -17.1154 -0.0369426 -12.1336
R_Calf  2.93072 3.68812 11.6249
R_Foot  -0.930922 1.83506 14.3418
R_Toe0  -0.506779 -0.26676 -16.5932
177
root  -6.63797 31.197 46.9505 -166.618 -6.33488 97.6559
Spine  -6.41254 10.0283 -7.16477
Spine1  -6.46116 6.12752 12.797
Neck  3.97569e-016 0 -2.38542e-015
Head  47.3548 -12.558 13.0182
R_Clavicle  0.344338 -11.5043 1.34875
R_UpperArm  19.1613 1.7528 25.5568
R_Forearm  16.6472 17.4109 -15.1311
R_Hand  0.0596222 7.0254 -10.0324
L_Clavicle  -0.512171 16.8186 -4.72636
L_UpperArm  -16.6231 -0.576995 22.9349
L_Forearm  -5.04938 35.6122 39.3787
L_Hand  0.142136 -6.88379 -10.9237
L_Thigh  -9.64261 2.80503 14.8304
L_Calf  0.575317 0.641451 -5.02599
L_Foot  0.230555 10.4062 -8.03772
L_Toe0  0.505156 0.034446 -6.1361
R_Thigh  -6.52385 -2.71323 -14.255
R_Calf  1.84851 3.84158 12.1391
R_Foot  -0.784879 2.24889 14.6715
R_Toe0  0.11431 -0.277228 -16.2511
178
root  -6.17875 31.3194 46.6465 -159.888 -6.02352 97.3507
Spine  -4.50216 12.1103 -8.59768
Spine1  -4.86439 3.5812 11.3955
Neck  3.97569e-016 0 -2.38542e-015
Head  47.3572 -12.6154 16.1304
R_Clavicle  0.321836 -9.53828 1.2767
R_UpperArm  19.7567 4.04951 25.8568
R_Forearm  17.6205 15.5272 -13.3752
R_Hand  0.095624 5.51017 -8.37106
L_Clavicle  -0.404059 15.2515 -3.9085
L_UpperArm  -20.4265 -1.63436 24.8641
L_Forearm  1.39078 36.7334 40.6479
L_Hand  0.0694554 -6.32163 -8.16932
L_Thigh  -13.5629 3.43057 16.1024
L_Calf  -2.68516 1.05941 -8.10135
L_Foot  1.0063 11.4996 -6.02398
L_Toe0  0.505156 0.034446 -6.1361
R_Thigh  -2.97706 -2.85458 -16.7202
R_Calf  1.55608 4.24701 13.4349
R_Foot  0.0332131 3.82775 13.0876
R_Toe0  1.7659 -0.347133 -15.2597
179
root  -5.6607 31.5877 46.2405 -153.815 -5.57783 96.7063
Spine  -2.91274 12.9121 -8.9621
Spine1  -3.67663 1.47828 7.62841
Neck  3.97569e-016 0 -2.38542e-015
Head  45.8045 -12.7421 20.7539
R_Clavicle  0.348058 -8.69882 1.54135
R_UpperArm  18.1293 6.26897 24.0993
R_Forearm  17.2408 9.19569 -7.75792
R_Hand  0.135331 4.40824 -6.72409
L_Clavicle  -0.353916 14.1052 -2.55524
L_UpperArm  -22.2041 -2.0125 27.833
L_Forearm  1.06856 36.4152 41.0724
L_Hand  0.00567957 -5.39086 -6.13887
L_Thigh  -16.0814 3.94611 15.9675
L_Calf  -5.7315 0.748948 -5.85571
L_Foot  1.32655 13.5683 -6.25405
L_Toe0  0.505156 0.034446 -6.1361
R_Thigh  -2.84281 -1.62167 -19.44
R_Calf  4.21243 4.8505 15.3719
R_Foot  1.05814 5.75259 9.89566
R_Toe0  3.65308 -0.544842 -13.1837
180
root  -5.1628 31.9979 45.7282 -147.925 -4.9624 95.6354
Spine  -1.6533 12.8493 -9.78313
Spine1  -2.53155 0.163728 4.5621
Neck  3.97569e-016 0 -2.38542e-015
Head  43.2034 -12.7281 24.2957
R_Clavicle  0.40519 -8.34151 2.01426
R_UpperArm  15.849 8.8106 21.6704
R_Forearm  15.901 1.44068 -1.22394
R_Hand  0.209236 4.62395 -6.28465
L_Clavicle  -0.344734 13.6224 -1.80429
L_UpperArm  -22.6972 -3.04783 31.3509
L_Forearm  -4.51635 35.1781 40.6902
L_Hand  -0.0426369 -4.42323 -5.4574
L_Thigh  -17.5718 3.70178 14.7712
L_Calf  -5.28496 -0.353519 2.15098
L_Foot  1.86119 15.6437 -5.82296
L_Toe0  0.505156 0.034446 -6.1361
R_Thigh  -1.3002 -1.3311 -22.0167
R_Calf  5.81361 5.85684 18.6486
R_Foot  1.28948 5.69758 6.06384
R_Toe0  4.36193 -0.817654 -9.97595
181
root  -4.67972 32.3933 45.1449 -142.767 -3.89014 94.3382
Spine  -0.241921 12.5613 -11.8289
Spine1  -0.875656 -0.580243 3.8294
Neck  3.97569e-016 0 -2.38542e-015
Head  39.0601 -12.9884 25.5321
R_Clavicle  0.461368 -7.03157 2.43546
R_UpperArm  13.7603 11.2673 19.5047
R_Forearm  16.2176 -6.62533 5.51062
R_Hand  0.17446 5.60523 -7.7503
L_Clavicle  -0.303468 12.6862 -1.79577
L_UpperArm  -23.4338 -4.21483 33.9337
L_Forearm  -9.50039 33.3089 39.927
L_Hand  -0.0908536 -3.40745 -5.23734
L_Thigh  -18.4321 3.31022 12.7933
L_Calf  -2.71722 -1.97939 14.158
L_Foot  2.84395 16.6203 -3.46642
L_Toe0  0.505156 0.034446 -6.1361
R_Thigh  1.11938 -1.89421 -24.7693
R_Calf  3.10125 7.44259 23.9729
R_Foot  1.0094 4.3248 3.27749
R_Toe0  4.06359 -0.914258 -7.23091
